<?xml version="1.0" standalone="no"?><!DOCTYPE svg PUBLIC "-//W3C//DTD SVG 1.1//EN" "http://www.w3.org/Graphics/SVG/1.1/DTD/svg11.dtd"><svg t="1563419675095" class="icon" viewBox="0 0 1024 1024" version="1.1" xmlns="http://www.w3.org/2000/svg" p-id="2154" xmlns:xlink="http://www.w3.org/1999/xlink" width="200" height="200"><defs><style type="text/css"></style></defs><path d="M768 615.992889c38.684444 24.007111 69.688889 56.32 93.013333 96.995555a258.901333 258.901333 0 0 1 34.986667 131.015112v89.998222c0 25.315556-8.675556 46.648889-25.998222 64-17.351111 17.351111-38.684444 25.998222-64 25.998222H89.998222c-25.315556 0-46.648889-8.675556-64-25.998222-17.351111-17.351111-25.998222-38.684444-25.998222-64v-89.998222c0-48.014222 12.344889-92.672 36.977778-134.001778 24.689778-41.329778 57.031111-74.012444 96.995555-97.991111l-49.976889-120.035556c-5.319111-10.638222-4.664889-20.650667 1.991112-29.980444 6.684444-9.329778 15.36-13.994667 25.998222-13.994667h84.024889a291.498667 291.498667 0 0 1-4.010667-47.985778c0-12.003556 1.336889-26.026667 3.982222-42.012444-87.978667-21.333333-131.982222-48.014222-131.982222-80.014222 0-33.308444 45.994667-60.643556 138.012444-81.976889 18.659556-68.010667 46.648889-125.354667 83.996445-172.003556 12.003556-16.014222 28.643556-24.007111 49.976889-24.007111 9.358222 0 37.347556 11.320889 84.024889 33.991111 18.659556 9.329778 37.319111 9.329778 55.978666 0 46.677333-22.670222 74.666667-33.991111 83.996445-33.991111 21.333333 0 38.001778 7.992889 50.005333 24.007111 37.347556 47.985778 65.336889 105.329778 83.996445 172.003556 92.017778 21.333333 138.012444 48.64 138.012444 81.976889 0 32-44.003556 58.680889-131.982222 80.014222a259.697778 259.697778 0 0 1 3.982222 42.012444c0 15.985778-1.336889 32-3.982222 47.985778h85.987555c10.666667 0 19.342222 4.664889 25.998223 13.994667 6.656 9.329778 7.992889 19.342222 3.982222 30.008889zM256 400.014222c0 53.333333 18.659556 98.645333 56.007111 135.964445 37.319111 37.347556 82.659556 56.035556 135.992889 56.035555 53.333333 0 98.673778-18.688 135.992889-56.035555 37.347556-37.319111 56.007111-82.631111 56.007111-135.964445V384c-6.656 3.982222-10.666667 7.992889-12.003556 12.003556-12.003556 33.336889-23.324444 55.324444-33.991111 65.991111-5.347556 5.347556-13.340444 9.671111-24.007111 12.999111a116.849778 116.849778 0 0 1-34.986666 5.006222c-12.686222 0-25.344-5.973333-38.001778-18.005333-12.686222-12.003556-23.011556-28.672-31.004445-50.005334-2.673778-7.964444-8.675556-11.975111-18.005333-11.975111s-15.36 3.982222-18.005333 11.975111c-7.992889 22.670222-18.659556 39.68-32 51.000889-13.340444 11.349333-26.652444 17.009778-39.992889 17.009778-13.340444 0-24.661333-1.991111-33.991111-5.973333a108.458667 108.458667 0 0 1-22.016-12.032c-10.666667-9.329778-21.987556-31.317333-33.991111-65.991111 0-3.982222-3.328-7.992889-10.012445-12.003556-1.336889 6.656-1.991111 12.003556-1.991111 16.014222z m-1.991111-152.007111c-50.688 12.003556-84.679111 21.987556-102.001778 29.980445 70.656 28.017778 169.329778 42.012444 295.992889 42.012444s225.336889-13.994667 295.992889-42.012444c-18.659556-7.964444-52.650667-17.976889-102.001778-29.980445-19.996444-80.014222-47.331556-141.340444-81.976889-184.007111-5.347556 2.673778-13.653333 6.997333-25.031111 12.999111-11.320889 6.001778-18.659556 9.671111-21.987555 11.008-3.328 1.336889-8.675556 3.669333-15.985778 6.997333-7.338667 3.328-12.999111 5.319111-17.009778 5.973334-3.982222 0.682667-8.675556 1.365333-13.994667 2.019555a146.204444 146.204444 0 0 1-18.005333 0.995556h-14.990222c-4.664889 0-9.329778-0.654222-14.023111-1.991111a125.866667 125.866667 0 0 1-11.975111-3.982222l-15.018667-6.030223a111.018667 111.018667 0 0 1-14.990222-6.997333 335.075556 335.075556 0 0 0-19.000889-9.984l-21.987556-11.008c-33.336889 41.329778-60.672 102.684444-82.005333 184.007111zM89.998222 960h195.982222l62.008889-231.992889c-79.985778-130.673778-122.652444-202.666667-128-216.007111H161.991111L216.007111 640l-50.005333 27.989333a202.410667 202.410667 0 0 0-75.008 75.008 199.395556 199.395556 0 0 0-26.993778 100.977778v90.026667c0 7.992889 2.332444 14.336 6.997333 19.000889 4.664889 4.664889 11.008 6.997333 19.000889 6.997333z m262.001778 0h192l-64-239.985778 44.003556-76.003555c-26.680889 7.992889-51.996444 12.003556-76.003556 12.003555-24.007111 0-49.322667-4.010667-76.003556-12.003555l44.003556 76.003555z m480-25.998222v-89.998222c0-74.666667-32.654222-131.982222-97.991111-172.003556l-44.003556-27.989333 50.005334-131.982223h-62.008889l-129.991111 215.978667 62.008889 231.992889h195.982222c7.992889 0 14.336-2.332444 19.000889-6.997333 4.664889-4.664889 6.997333-11.008 6.997333-19.000889z" p-id="2155" fill="#d81e06"></path></svg>